<svg xmlns="http://www.w3.org/2000/svg" xmlns:xlink="http://www.w3.org/1999/xlink" width="500" zoomAndPan="magnify" viewBox="0 0 375 149.999998" height="200" preserveAspectRatio="xMidYMid meet" version="1.0"><defs><g/><clipPath id="c380e0c036"><path d="M 0.519531 0 L 304 0 L 304 120 L 0.519531 120 Z M 0.519531 0 " clip-rule="nonzero"/></clipPath><clipPath id="f133408fc5"><rect x="0" width="304" y="0" height="120"/></clipPath><clipPath id="a0b0a0b34c"><path d="M 7 104 L 305.078125 104 L 305.078125 132.238281 L 7 132.238281 Z M 7 104 " clip-rule="nonzero"/></clipPath><clipPath id="b7458a385c"><rect x="0" width="299" y="0" height="29"/></clipPath><clipPath id="b00ce5c542"><rect x="0" width="306" y="0" height="133"/></clipPath></defs><g transform="matrix(1, 0, 0, 1, 35, -0.000000000000007527)"><g clip-path="url(#b00ce5c542)"><g clip-path="url(#c380e0c036)"><g transform="matrix(1, 0, 0, 1, 0, -0.000000000000007527)"><g clip-path="url(#f133408fc5)"><g fill="#112850" fill-opacity="1"><g transform="translate(0.54253, 93.40229)"><g><path d="M 8.671875 -72.21875 L 24.5625 -72.21875 L 24.5625 -40.65625 L 53.65625 -72.21875 L 73.15625 -72.21875 L 43.640625 -41.578125 L 74.390625 0 L 55.296875 0 L 32.90625 -30.75 L 24.5625 -22.078125 L 24.5625 0 L 8.671875 0 Z M 8.671875 -72.21875 "/></g></g></g><g fill="#112850" fill-opacity="1"><g transform="translate(72.755851, 93.40229)"><g><path d="M 28.984375 -28.46875 L 1.234375 -72.21875 L 19.8125 -72.21875 L 37.03125 -43.234375 L 54.578125 -72.21875 L 72.640625 -72.21875 L 44.875 -28.78125 L 44.875 0 L 28.984375 0 Z M 28.984375 -28.46875 "/></g></g></g><g fill="#112850" fill-opacity="1"><g transform="translate(140.429723, 93.40229)"><g><path d="M 43.4375 1.234375 C 37.789062 1.234375 32.644531 0.304688 28 -1.546875 C 23.363281 -3.398438 19.378906 -5.976562 16.046875 -9.28125 C 12.710938 -12.582031 10.113281 -16.503906 8.25 -21.046875 C 6.394531 -25.585938 5.46875 -30.539062 5.46875 -35.90625 L 5.46875 -36.109375 C 5.46875 -41.265625 6.410156 -46.09375 8.296875 -50.59375 C 10.191406 -55.101562 12.820312 -59.0625 16.1875 -62.46875 C 19.5625 -65.875 23.550781 -68.554688 28.15625 -70.515625 C 32.769531 -72.472656 37.828125 -73.453125 43.328125 -73.453125 C 46.566406 -73.453125 49.507812 -73.226562 52.15625 -72.78125 C 54.800781 -72.332031 57.257812 -71.695312 59.53125 -70.875 C 61.800781 -70.050781 63.929688 -69.019531 65.921875 -67.78125 C 67.921875 -66.539062 69.847656 -65.128906 71.703125 -63.546875 L 61.703125 -51.484375 C 60.328125 -52.648438 58.945312 -53.679688 57.5625 -54.578125 C 56.1875 -55.472656 54.757812 -56.226562 53.28125 -56.84375 C 51.800781 -57.46875 50.203125 -57.953125 48.484375 -58.296875 C 46.765625 -58.640625 44.875 -58.8125 42.8125 -58.8125 C 39.925781 -58.8125 37.226562 -58.207031 34.71875 -57 C 32.207031 -55.800781 30.003906 -54.1875 28.109375 -52.15625 C 26.222656 -50.125 24.742188 -47.75 23.671875 -45.03125 C 22.609375 -42.3125 22.078125 -39.40625 22.078125 -36.3125 L 22.078125 -36.109375 C 22.078125 -32.804688 22.609375 -29.757812 23.671875 -26.96875 C 24.742188 -24.1875 26.257812 -21.765625 28.21875 -19.703125 C 30.175781 -17.640625 32.476562 -16.039062 35.125 -14.90625 C 37.78125 -13.769531 40.722656 -13.203125 43.953125 -13.203125 C 49.867188 -13.203125 54.851562 -14.648438 58.90625 -17.546875 L 58.90625 -27.859375 L 42.921875 -27.859375 L 42.921875 -41.578125 L 74.28125 -41.578125 L 74.28125 -10.21875 C 70.570312 -7.050781 66.15625 -4.347656 61.03125 -2.109375 C 55.90625 0.117188 50.039062 1.234375 43.4375 1.234375 Z M 43.4375 1.234375 "/></g></g></g><g fill="#112850" fill-opacity="1"><g transform="translate(221.308962, 93.40229)"><g><path d="M 33.421875 -72.734375 L 48.078125 -72.734375 L 79.03125 0 L 62.421875 0 L 55.8125 -16.203125 L 25.28125 -16.203125 L 18.671875 0 L 2.46875 0 Z M 50.140625 -30.234375 L 40.546875 -53.65625 L 30.953125 -30.234375 Z M 50.140625 -30.234375 "/></g></g></g></g></g></g><g clip-path="url(#a0b0a0b34c)"><g transform="matrix(1, 0, 0, 1, 7, 104)"><g clip-path="url(#b7458a385c)"><g fill="#112850" fill-opacity="1"><g transform="translate(0.598983, 20.953608)"><g><path d="M 7.640625 -7.59375 L 4.34375 -4.25 L 4.34375 0 L 2.625 0 L 2.625 -16.171875 L 4.34375 -16.171875 L 4.34375 -6.390625 L 13.828125 -16.171875 L 15.796875 -16.171875 L 8.796875 -8.84375 L 16.28125 0 L 14.25 0 Z M 7.640625 -7.59375 "/></g></g></g><g fill="#112850" fill-opacity="1"><g transform="translate(16.469002, 20.953608)"><g><path d="M 12.859375 -5.5625 L 2.703125 -5.5625 C 2.796875 -4.300781 3.28125 -3.28125 4.15625 -2.5 C 5.03125 -1.726562 6.140625 -1.34375 7.484375 -1.34375 C 8.234375 -1.34375 8.921875 -1.472656 9.546875 -1.734375 C 10.179688 -2.003906 10.734375 -2.40625 11.203125 -2.9375 L 12.125 -1.875 C 11.582031 -1.226562 10.90625 -0.734375 10.09375 -0.390625 C 9.289062 -0.0546875 8.40625 0.109375 7.4375 0.109375 C 6.1875 0.109375 5.078125 -0.15625 4.109375 -0.6875 C 3.148438 -1.21875 2.398438 -1.953125 1.859375 -2.890625 C 1.328125 -3.828125 1.0625 -4.890625 1.0625 -6.078125 C 1.0625 -7.265625 1.316406 -8.328125 1.828125 -9.265625 C 2.347656 -10.203125 3.054688 -10.929688 3.953125 -11.453125 C 4.859375 -11.972656 5.875 -12.234375 7 -12.234375 C 8.125 -12.234375 9.128906 -11.972656 10.015625 -11.453125 C 10.910156 -10.929688 11.613281 -10.203125 12.125 -9.265625 C 12.632812 -8.335938 12.890625 -7.273438 12.890625 -6.078125 Z M 7 -10.828125 C 5.832031 -10.828125 4.847656 -10.453125 4.046875 -9.703125 C 3.253906 -8.960938 2.804688 -7.992188 2.703125 -6.796875 L 11.3125 -6.796875 C 11.207031 -7.992188 10.757812 -8.960938 9.96875 -9.703125 C 9.175781 -10.453125 8.1875 -10.828125 7 -10.828125 Z M 7 -10.828125 "/></g></g></g><g fill="#112850" fill-opacity="1"><g transform="translate(30.190672, 20.953608)"><g><path d="M 12.5 -12.140625 L 6.421875 1.453125 C 5.929688 2.585938 5.359375 3.394531 4.703125 3.875 C 4.054688 4.351562 3.28125 4.59375 2.375 4.59375 C 1.789062 4.59375 1.242188 4.5 0.734375 4.3125 C 0.234375 4.132812 -0.203125 3.859375 -0.578125 3.484375 L 0.1875 2.265625 C 0.800781 2.878906 1.539062 3.1875 2.40625 3.1875 C 2.957031 3.1875 3.425781 3.03125 3.8125 2.71875 C 4.207031 2.414062 4.578125 1.894531 4.921875 1.15625 L 5.453125 -0.015625 L 0.015625 -12.140625 L 1.734375 -12.140625 L 6.296875 -1.828125 L 10.875 -12.140625 Z M 12.5 -12.140625 "/></g></g></g><g fill="#112850" fill-opacity="1"><g transform="translate(42.711119, 20.953608)"><g/></g></g><g fill="#112850" fill-opacity="1"><g transform="translate(48.763432, 20.953608)"><g><path d="M 8.6875 -0.734375 C 8.375 -0.460938 7.988281 -0.253906 7.53125 -0.109375 C 7.082031 0.0351562 6.613281 0.109375 6.125 0.109375 C 4.976562 0.109375 4.097656 -0.195312 3.484375 -0.8125 C 2.867188 -1.425781 2.5625 -2.296875 2.5625 -3.421875 L 2.5625 -10.765625 L 0.390625 -10.765625 L 0.390625 -12.140625 L 2.5625 -12.140625 L 2.5625 -14.796875 L 4.203125 -14.796875 L 4.203125 -12.140625 L 7.890625 -12.140625 L 7.890625 -10.765625 L 4.203125 -10.765625 L 4.203125 -3.515625 C 4.203125 -2.785156 4.378906 -2.234375 4.734375 -1.859375 C 5.097656 -1.484375 5.617188 -1.296875 6.296875 -1.296875 C 6.640625 -1.296875 6.96875 -1.347656 7.28125 -1.453125 C 7.601562 -1.554688 7.878906 -1.710938 8.109375 -1.921875 Z M 8.6875 -0.734375 "/></g></g></g><g fill="#112850" fill-opacity="1"><g transform="translate(57.70332, 20.953608)"><g><path d="M 7.25 0.109375 C 6.082031 0.109375 5.023438 -0.15625 4.078125 -0.6875 C 3.140625 -1.21875 2.398438 -1.953125 1.859375 -2.890625 C 1.328125 -3.828125 1.0625 -4.890625 1.0625 -6.078125 C 1.0625 -7.265625 1.328125 -8.328125 1.859375 -9.265625 C 2.398438 -10.203125 3.140625 -10.929688 4.078125 -11.453125 C 5.023438 -11.972656 6.082031 -12.234375 7.25 -12.234375 C 8.414062 -12.234375 9.46875 -11.972656 10.40625 -11.453125 C 11.351562 -10.929688 12.09375 -10.203125 12.625 -9.265625 C 13.15625 -8.328125 13.421875 -7.265625 13.421875 -6.078125 C 13.421875 -4.890625 13.15625 -3.828125 12.625 -2.890625 C 12.09375 -1.953125 11.351562 -1.21875 10.40625 -0.6875 C 9.46875 -0.15625 8.414062 0.109375 7.25 0.109375 Z M 7.25 -1.34375 C 8.113281 -1.34375 8.882812 -1.535156 9.5625 -1.921875 C 10.25 -2.316406 10.785156 -2.875 11.171875 -3.59375 C 11.554688 -4.320312 11.75 -5.148438 11.75 -6.078125 C 11.75 -6.992188 11.554688 -7.8125 11.171875 -8.53125 C 10.785156 -9.257812 10.25 -9.820312 9.5625 -10.21875 C 8.882812 -10.613281 8.113281 -10.8125 7.25 -10.8125 C 6.382812 -10.8125 5.609375 -10.613281 4.921875 -10.21875 C 4.242188 -9.820312 3.707031 -9.257812 3.3125 -8.53125 C 2.914062 -7.8125 2.71875 -6.992188 2.71875 -6.078125 C 2.71875 -5.148438 2.914062 -4.320312 3.3125 -3.59375 C 3.707031 -2.875 4.242188 -2.316406 4.921875 -1.921875 C 5.609375 -1.535156 6.382812 -1.34375 7.25 -1.34375 Z M 7.25 -1.34375 "/></g></g></g><g fill="#333333" fill-opacity="1"><g transform="translate(72.201271, 20.953608)"><g/></g></g><g fill="#55b5bf" fill-opacity="1"><g transform="translate(78.269644, 20.953608)"><g><path d="M 14.015625 -8.078125 L 15.65625 -8.078125 L 15.65625 -1.921875 C 14.90625 -1.253906 14.015625 -0.742188 12.984375 -0.390625 C 11.953125 -0.0351562 10.863281 0.140625 9.71875 0.140625 C 8.101562 0.140625 6.648438 -0.210938 5.359375 -0.921875 C 4.066406 -1.628906 3.050781 -2.609375 2.3125 -3.859375 C 1.570312 -5.117188 1.203125 -6.523438 1.203125 -8.078125 C 1.203125 -9.640625 1.570312 -11.046875 2.3125 -12.296875 C 3.050781 -13.546875 4.066406 -14.523438 5.359375 -15.234375 C 6.648438 -15.941406 8.113281 -16.296875 9.75 -16.296875 C 10.976562 -16.296875 12.109375 -16.097656 13.140625 -15.703125 C 14.171875 -15.316406 15.039062 -14.738281 15.75 -13.96875 L 14.6875 -12.890625 C 13.40625 -14.148438 11.78125 -14.78125 9.8125 -14.78125 C 8.507812 -14.78125 7.328125 -14.488281 6.265625 -13.90625 C 5.210938 -13.332031 4.382812 -12.53125 3.78125 -11.5 C 3.1875 -10.476562 2.890625 -9.335938 2.890625 -8.078125 C 2.890625 -6.816406 3.1875 -5.675781 3.78125 -4.65625 C 4.382812 -3.644531 5.207031 -2.847656 6.25 -2.265625 C 7.300781 -1.679688 8.484375 -1.390625 9.796875 -1.390625 C 11.453125 -1.390625 12.859375 -1.800781 14.015625 -2.625 Z M 14.015625 -8.078125 "/></g></g></g><g fill="#55b5bf" fill-opacity="1"><g transform="translate(96.12631, 20.953608)"><g><path d="M 2.28125 -17.140625 L 3.921875 -17.140625 L 3.921875 0 L 2.28125 0 Z M 2.28125 -17.140625 "/></g></g></g><g fill="#55b5bf" fill-opacity="1"><g transform="translate(102.340347, 20.953608)"><g><path d="M 7.25 0.109375 C 6.082031 0.109375 5.023438 -0.15625 4.078125 -0.6875 C 3.140625 -1.21875 2.398438 -1.953125 1.859375 -2.890625 C 1.328125 -3.828125 1.0625 -4.890625 1.0625 -6.078125 C 1.0625 -7.265625 1.328125 -8.328125 1.859375 -9.265625 C 2.398438 -10.203125 3.140625 -10.929688 4.078125 -11.453125 C 5.023438 -11.972656 6.082031 -12.234375 7.25 -12.234375 C 8.414062 -12.234375 9.46875 -11.972656 10.40625 -11.453125 C 11.351562 -10.929688 12.09375 -10.203125 12.625 -9.265625 C 13.15625 -8.328125 13.421875 -7.265625 13.421875 -6.078125 C 13.421875 -4.890625 13.15625 -3.828125 12.625 -2.890625 C 12.09375 -1.953125 11.351562 -1.21875 10.40625 -0.6875 C 9.46875 -0.15625 8.414062 0.109375 7.25 0.109375 Z M 7.25 -1.34375 C 8.113281 -1.34375 8.882812 -1.535156 9.5625 -1.921875 C 10.25 -2.316406 10.785156 -2.875 11.171875 -3.59375 C 11.554688 -4.320312 11.75 -5.148438 11.75 -6.078125 C 11.75 -6.992188 11.554688 -7.8125 11.171875 -8.53125 C 10.785156 -9.257812 10.25 -9.820312 9.5625 -10.21875 C 8.882812 -10.613281 8.113281 -10.8125 7.25 -10.8125 C 6.382812 -10.8125 5.609375 -10.613281 4.921875 -10.21875 C 4.242188 -9.820312 3.707031 -9.257812 3.3125 -8.53125 C 2.914062 -7.8125 2.71875 -6.992188 2.71875 -6.078125 C 2.71875 -5.148438 2.914062 -4.320312 3.3125 -3.59375 C 3.707031 -2.875 4.242188 -2.316406 4.921875 -1.921875 C 5.609375 -1.535156 6.382812 -1.34375 7.25 -1.34375 Z M 7.25 -1.34375 "/></g></g></g><g fill="#55b5bf" fill-opacity="1"><g transform="translate(116.824331, 20.953608)"><g><path d="M 8.546875 -12.234375 C 9.679688 -12.234375 10.710938 -11.972656 11.640625 -11.453125 C 12.566406 -10.941406 13.289062 -10.21875 13.8125 -9.28125 C 14.332031 -8.34375 14.59375 -7.273438 14.59375 -6.078125 C 14.59375 -4.867188 14.332031 -3.796875 13.8125 -2.859375 C 13.289062 -1.921875 12.566406 -1.191406 11.640625 -0.671875 C 10.710938 -0.148438 9.679688 0.109375 8.546875 0.109375 C 7.523438 0.109375 6.609375 -0.101562 5.796875 -0.53125 C 4.992188 -0.957031 4.347656 -1.582031 3.859375 -2.40625 L 3.859375 0 L 2.28125 0 L 2.28125 -17.140625 L 3.921875 -17.140625 L 3.921875 -9.84375 C 4.429688 -10.625 5.082031 -11.21875 5.875 -11.625 C 6.664062 -12.03125 7.554688 -12.234375 8.546875 -12.234375 Z M 8.421875 -1.34375 C 9.273438 -1.34375 10.046875 -1.535156 10.734375 -1.921875 C 11.429688 -2.316406 11.972656 -2.875 12.359375 -3.59375 C 12.753906 -4.320312 12.953125 -5.148438 12.953125 -6.078125 C 12.953125 -6.992188 12.753906 -7.8125 12.359375 -8.53125 C 11.972656 -9.257812 11.429688 -9.820312 10.734375 -10.21875 C 10.046875 -10.613281 9.273438 -10.8125 8.421875 -10.8125 C 7.566406 -10.8125 6.796875 -10.613281 6.109375 -10.21875 C 5.421875 -9.820312 4.878906 -9.257812 4.484375 -8.53125 C 4.097656 -7.8125 3.90625 -6.992188 3.90625 -6.078125 C 3.90625 -5.148438 4.097656 -4.320312 4.484375 -3.59375 C 4.878906 -2.875 5.421875 -2.316406 6.109375 -1.921875 C 6.796875 -1.535156 7.566406 -1.34375 8.421875 -1.34375 Z M 8.421875 -1.34375 "/></g></g></g><g fill="#55b5bf" fill-opacity="1"><g transform="translate(132.417143, 20.953608)"><g><path d="M 6.53125 -12.234375 C 8.125 -12.234375 9.34375 -11.835938 10.1875 -11.046875 C 11.03125 -10.253906 11.453125 -9.082031 11.453125 -7.53125 L 11.453125 0 L 9.890625 0 L 9.890625 -1.890625 C 9.515625 -1.265625 8.96875 -0.773438 8.25 -0.421875 C 7.539062 -0.0664062 6.691406 0.109375 5.703125 0.109375 C 4.347656 0.109375 3.269531 -0.210938 2.46875 -0.859375 C 1.664062 -1.503906 1.265625 -2.359375 1.265625 -3.421875 C 1.265625 -4.453125 1.640625 -5.28125 2.390625 -5.90625 C 3.140625 -6.539062 4.328125 -6.859375 5.953125 -6.859375 L 9.8125 -6.859375 L 9.8125 -7.59375 C 9.8125 -8.644531 9.519531 -9.441406 8.9375 -9.984375 C 8.351562 -10.535156 7.5 -10.8125 6.375 -10.8125 C 5.601562 -10.8125 4.863281 -10.679688 4.15625 -10.421875 C 3.445312 -10.171875 2.835938 -9.820312 2.328125 -9.375 L 1.59375 -10.59375 C 2.207031 -11.125 2.945312 -11.53125 3.8125 -11.8125 C 4.675781 -12.09375 5.582031 -12.234375 6.53125 -12.234375 Z M 5.953125 -1.171875 C 6.878906 -1.171875 7.671875 -1.382812 8.328125 -1.8125 C 8.992188 -2.238281 9.488281 -2.851562 9.8125 -3.65625 L 9.8125 -5.640625 L 6 -5.640625 C 3.925781 -5.640625 2.890625 -4.914062 2.890625 -3.46875 C 2.890625 -2.757812 3.15625 -2.195312 3.6875 -1.78125 C 4.226562 -1.375 4.984375 -1.171875 5.953125 -1.171875 Z M 5.953125 -1.171875 "/></g></g></g><g fill="#55b5bf" fill-opacity="1"><g transform="translate(146.046419, 20.953608)"><g><path d="M 2.28125 -17.140625 L 3.921875 -17.140625 L 3.921875 0 L 2.28125 0 Z M 2.28125 -17.140625 "/></g></g></g><g fill="#55b5bf" fill-opacity="1"><g transform="translate(152.260456, 20.953608)"><g/></g></g><g fill="#55b5bf" fill-opacity="1"><g transform="translate(158.312769, 20.953608)"><g><path d="M 12.765625 -4.3125 L 3.765625 -4.3125 L 1.828125 0 L 0.046875 0 L 7.4375 -16.171875 L 9.125 -16.171875 L 16.515625 0 L 14.703125 0 Z M 12.140625 -5.703125 L 8.265625 -14.390625 L 4.390625 -5.703125 Z M 12.140625 -5.703125 "/></g></g></g><g fill="#55b5bf" fill-opacity="1"><g transform="translate(174.644807, 20.953608)"><g><path d="M 13.234375 -12.140625 L 13.234375 0 L 11.65625 0 L 11.65625 -2.21875 C 11.226562 -1.476562 10.632812 -0.90625 9.875 -0.5 C 9.125 -0.09375 8.265625 0.109375 7.296875 0.109375 C 5.710938 0.109375 4.460938 -0.332031 3.546875 -1.21875 C 2.628906 -2.101562 2.171875 -3.398438 2.171875 -5.109375 L 2.171875 -12.140625 L 3.8125 -12.140625 L 3.8125 -5.265625 C 3.8125 -3.984375 4.125 -3.007812 4.75 -2.34375 C 5.382812 -1.6875 6.285156 -1.359375 7.453125 -1.359375 C 8.734375 -1.359375 9.742188 -1.742188 10.484375 -2.515625 C 11.222656 -3.296875 11.59375 -4.378906 11.59375 -5.765625 L 11.59375 -12.140625 Z M 13.234375 -12.140625 "/></g></g></g><g fill="#55b5bf" fill-opacity="1"><g transform="translate(190.191422, 20.953608)"><g><path d="M 8.6875 -0.734375 C 8.375 -0.460938 7.988281 -0.253906 7.53125 -0.109375 C 7.082031 0.0351562 6.613281 0.109375 6.125 0.109375 C 4.976562 0.109375 4.097656 -0.195312 3.484375 -0.8125 C 2.867188 -1.425781 2.5625 -2.296875 2.5625 -3.421875 L 2.5625 -10.765625 L 0.390625 -10.765625 L 0.390625 -12.140625 L 2.5625 -12.140625 L 2.5625 -14.796875 L 4.203125 -14.796875 L 4.203125 -12.140625 L 7.890625 -12.140625 L 7.890625 -10.765625 L 4.203125 -10.765625 L 4.203125 -3.515625 C 4.203125 -2.785156 4.378906 -2.234375 4.734375 -1.859375 C 5.097656 -1.484375 5.617188 -1.296875 6.296875 -1.296875 C 6.640625 -1.296875 6.96875 -1.347656 7.28125 -1.453125 C 7.601562 -1.554688 7.878906 -1.710938 8.109375 -1.921875 Z M 8.6875 -0.734375 "/></g></g></g><g fill="#55b5bf" fill-opacity="1"><g transform="translate(199.13131, 20.953608)"><g><path d="M 7.25 0.109375 C 6.082031 0.109375 5.023438 -0.15625 4.078125 -0.6875 C 3.140625 -1.21875 2.398438 -1.953125 1.859375 -2.890625 C 1.328125 -3.828125 1.0625 -4.890625 1.0625 -6.078125 C 1.0625 -7.265625 1.328125 -8.328125 1.859375 -9.265625 C 2.398438 -10.203125 3.140625 -10.929688 4.078125 -11.453125 C 5.023438 -11.972656 6.082031 -12.234375 7.25 -12.234375 C 8.414062 -12.234375 9.46875 -11.972656 10.40625 -11.453125 C 11.351562 -10.929688 12.09375 -10.203125 12.625 -9.265625 C 13.15625 -8.328125 13.421875 -7.265625 13.421875 -6.078125 C 13.421875 -4.890625 13.15625 -3.828125 12.625 -2.890625 C 12.09375 -1.953125 11.351562 -1.21875 10.40625 -0.6875 C 9.46875 -0.15625 8.414062 0.109375 7.25 0.109375 Z M 7.25 -1.34375 C 8.113281 -1.34375 8.882812 -1.535156 9.5625 -1.921875 C 10.25 -2.316406 10.785156 -2.875 11.171875 -3.59375 C 11.554688 -4.320312 11.75 -5.148438 11.75 -6.078125 C 11.75 -6.992188 11.554688 -7.8125 11.171875 -8.53125 C 10.785156 -9.257812 10.25 -9.820312 9.5625 -10.21875 C 8.882812 -10.613281 8.113281 -10.8125 7.25 -10.8125 C 6.382812 -10.8125 5.609375 -10.613281 4.921875 -10.21875 C 4.242188 -9.820312 3.707031 -9.257812 3.3125 -8.53125 C 2.914062 -7.8125 2.71875 -6.992188 2.71875 -6.078125 C 2.71875 -5.148438 2.914062 -4.320312 3.3125 -3.59375 C 3.707031 -2.875 4.242188 -2.316406 4.921875 -1.921875 C 5.609375 -1.535156 6.382812 -1.34375 7.25 -1.34375 Z M 7.25 -1.34375 "/></g></g></g><g fill="#55b5bf" fill-opacity="1"><g transform="translate(213.615294, 20.953608)"><g><path d="M 17.4375 -12.234375 C 18.957031 -12.234375 20.148438 -11.796875 21.015625 -10.921875 C 21.890625 -10.046875 22.328125 -8.753906 22.328125 -7.046875 L 22.328125 0 L 20.6875 0 L 20.6875 -6.875 C 20.6875 -8.144531 20.382812 -9.109375 19.78125 -9.765625 C 19.175781 -10.429688 18.316406 -10.765625 17.203125 -10.765625 C 15.941406 -10.765625 14.945312 -10.375 14.21875 -9.59375 C 13.5 -8.8125 13.140625 -7.738281 13.140625 -6.375 L 13.140625 0 L 11.5 0 L 11.5 -6.875 C 11.5 -8.144531 11.191406 -9.109375 10.578125 -9.765625 C 9.972656 -10.429688 9.109375 -10.765625 7.984375 -10.765625 C 6.742188 -10.765625 5.753906 -10.375 5.015625 -9.59375 C 4.285156 -8.8125 3.921875 -7.738281 3.921875 -6.375 L 3.921875 0 L 2.28125 0 L 2.28125 -12.140625 L 3.859375 -12.140625 L 3.859375 -9.9375 C 4.285156 -10.664062 4.882812 -11.226562 5.65625 -11.625 C 6.425781 -12.03125 7.3125 -12.234375 8.3125 -12.234375 C 9.332031 -12.234375 10.210938 -12.019531 10.953125 -11.59375 C 11.703125 -11.164062 12.257812 -10.523438 12.625 -9.671875 C 13.070312 -10.472656 13.710938 -11.097656 14.546875 -11.546875 C 15.390625 -12.003906 16.351562 -12.234375 17.4375 -12.234375 Z M 17.4375 -12.234375 "/></g></g></g><g fill="#55b5bf" fill-opacity="1"><g transform="translate(238.124883, 20.953608)"><g><path d="M 6.53125 -12.234375 C 8.125 -12.234375 9.34375 -11.835938 10.1875 -11.046875 C 11.03125 -10.253906 11.453125 -9.082031 11.453125 -7.53125 L 11.453125 0 L 9.890625 0 L 9.890625 -1.890625 C 9.515625 -1.265625 8.96875 -0.773438 8.25 -0.421875 C 7.539062 -0.0664062 6.691406 0.109375 5.703125 0.109375 C 4.347656 0.109375 3.269531 -0.210938 2.46875 -0.859375 C 1.664062 -1.503906 1.265625 -2.359375 1.265625 -3.421875 C 1.265625 -4.453125 1.640625 -5.28125 2.390625 -5.90625 C 3.140625 -6.539062 4.328125 -6.859375 5.953125 -6.859375 L 9.8125 -6.859375 L 9.8125 -7.59375 C 9.8125 -8.644531 9.519531 -9.441406 8.9375 -9.984375 C 8.351562 -10.535156 7.5 -10.8125 6.375 -10.8125 C 5.601562 -10.8125 4.863281 -10.679688 4.15625 -10.421875 C 3.445312 -10.171875 2.835938 -9.820312 2.328125 -9.375 L 1.59375 -10.59375 C 2.207031 -11.125 2.945312 -11.53125 3.8125 -11.8125 C 4.675781 -12.09375 5.582031 -12.234375 6.53125 -12.234375 Z M 5.953125 -1.171875 C 6.878906 -1.171875 7.671875 -1.382812 8.328125 -1.8125 C 8.992188 -2.238281 9.488281 -2.851562 9.8125 -3.65625 L 9.8125 -5.640625 L 6 -5.640625 C 3.925781 -5.640625 2.890625 -4.914062 2.890625 -3.46875 C 2.890625 -2.757812 3.15625 -2.195312 3.6875 -1.78125 C 4.226562 -1.375 4.984375 -1.171875 5.953125 -1.171875 Z M 5.953125 -1.171875 "/></g></g></g><g fill="#55b5bf" fill-opacity="1"><g transform="translate(251.754159, 20.953608)"><g><path d="M 8.6875 -0.734375 C 8.375 -0.460938 7.988281 -0.253906 7.53125 -0.109375 C 7.082031 0.0351562 6.613281 0.109375 6.125 0.109375 C 4.976562 0.109375 4.097656 -0.195312 3.484375 -0.8125 C 2.867188 -1.425781 2.5625 -2.296875 2.5625 -3.421875 L 2.5625 -10.765625 L 0.390625 -10.765625 L 0.390625 -12.140625 L 2.5625 -12.140625 L 2.5625 -14.796875 L 4.203125 -14.796875 L 4.203125 -12.140625 L 7.890625 -12.140625 L 7.890625 -10.765625 L 4.203125 -10.765625 L 4.203125 -3.515625 C 4.203125 -2.785156 4.378906 -2.234375 4.734375 -1.859375 C 5.097656 -1.484375 5.617188 -1.296875 6.296875 -1.296875 C 6.640625 -1.296875 6.96875 -1.347656 7.28125 -1.453125 C 7.601562 -1.554688 7.878906 -1.710938 8.109375 -1.921875 Z M 8.6875 -0.734375 "/></g></g></g><g fill="#55b5bf" fill-opacity="1"><g transform="translate(261.132956, 20.953608)"><g><path d="M 2.28125 -12.140625 L 3.921875 -12.140625 L 3.921875 0 L 2.28125 0 Z M 3.125 -14.796875 C 2.78125 -14.796875 2.492188 -14.910156 2.265625 -15.140625 C 2.035156 -15.378906 1.921875 -15.660156 1.921875 -15.984375 C 1.921875 -16.285156 2.035156 -16.550781 2.265625 -16.78125 C 2.492188 -17.019531 2.78125 -17.140625 3.125 -17.140625 C 3.457031 -17.140625 3.738281 -17.023438 3.96875 -16.796875 C 4.195312 -16.578125 4.3125 -16.3125 4.3125 -16 C 4.3125 -15.664062 4.195312 -15.378906 3.96875 -15.140625 C 3.738281 -14.910156 3.457031 -14.796875 3.125 -14.796875 Z M 3.125 -14.796875 "/></g></g></g><g fill="#55b5bf" fill-opacity="1"><g transform="translate(267.346993, 20.953608)"><g><path d="M 7.25 0.109375 C 6.082031 0.109375 5.023438 -0.15625 4.078125 -0.6875 C 3.140625 -1.21875 2.398438 -1.953125 1.859375 -2.890625 C 1.328125 -3.828125 1.0625 -4.890625 1.0625 -6.078125 C 1.0625 -7.265625 1.328125 -8.328125 1.859375 -9.265625 C 2.398438 -10.203125 3.140625 -10.929688 4.078125 -11.453125 C 5.023438 -11.972656 6.082031 -12.234375 7.25 -12.234375 C 8.414062 -12.234375 9.46875 -11.972656 10.40625 -11.453125 C 11.351562 -10.929688 12.09375 -10.203125 12.625 -9.265625 C 13.15625 -8.328125 13.421875 -7.265625 13.421875 -6.078125 C 13.421875 -4.890625 13.15625 -3.828125 12.625 -2.890625 C 12.09375 -1.953125 11.351562 -1.21875 10.40625 -0.6875 C 9.46875 -0.15625 8.414062 0.109375 7.25 0.109375 Z M 7.25 -1.34375 C 8.113281 -1.34375 8.882812 -1.535156 9.5625 -1.921875 C 10.25 -2.316406 10.785156 -2.875 11.171875 -3.59375 C 11.554688 -4.320312 11.75 -5.148438 11.75 -6.078125 C 11.75 -6.992188 11.554688 -7.8125 11.171875 -8.53125 C 10.785156 -9.257812 10.25 -9.820312 9.5625 -10.21875 C 8.882812 -10.613281 8.113281 -10.8125 7.25 -10.8125 C 6.382812 -10.8125 5.609375 -10.613281 4.921875 -10.21875 C 4.242188 -9.820312 3.707031 -9.257812 3.3125 -8.53125 C 2.914062 -7.8125 2.71875 -6.992188 2.71875 -6.078125 C 2.71875 -5.148438 2.914062 -4.320312 3.3125 -3.59375 C 3.707031 -2.875 4.242188 -2.316406 4.921875 -1.921875 C 5.609375 -1.535156 6.382812 -1.34375 7.25 -1.34375 Z M 7.25 -1.34375 "/></g></g></g><g fill="#55b5bf" fill-opacity="1"><g transform="translate(281.830977, 20.953608)"><g><path d="M 8.46875 -12.234375 C 10 -12.234375 11.210938 -11.789062 12.109375 -10.90625 C 13.015625 -10.019531 13.46875 -8.734375 13.46875 -7.046875 L 13.46875 0 L 11.828125 0 L 11.828125 -6.875 C 11.828125 -8.144531 11.507812 -9.109375 10.875 -9.765625 C 10.25 -10.429688 9.347656 -10.765625 8.171875 -10.765625 C 6.867188 -10.765625 5.832031 -10.375 5.0625 -9.59375 C 4.300781 -8.8125 3.921875 -7.738281 3.921875 -6.375 L 3.921875 0 L 2.28125 0 L 2.28125 -12.140625 L 3.859375 -12.140625 L 3.859375 -9.90625 C 4.304688 -10.644531 4.925781 -11.21875 5.71875 -11.625 C 6.507812 -12.03125 7.425781 -12.234375 8.46875 -12.234375 Z M 8.46875 -12.234375 "/></g></g></g></g></g></g></g></g></svg>